<?xml version="1.0" encoding="UTF-8"?>
<svg width="311px" height="99px" viewBox="0 0 311 99" version="1.1" xmlns="http://www.w3.org/2000/svg" xmlns:xlink="http://www.w3.org/1999/xlink">
    <title>Logo / Gorila / Full Color</title>
    <defs>
        <path d="M271.08219,32.1474714 L271.603027,32.1517918 C278.882237,32.2726202 285.628393,34.921964 290.845279,39.353766 L290.845279,39.353766 L291.97563,34.7198005 L292.012223,34.6000002 C292.169829,34.1727306 292.579196,33.8821056 293.043386,33.8821056 L293.043386,33.8821056 L303.900781,33.8821056 L304.020551,33.8885474 C304.571284,33.9481503 305,34.4140468 305,34.980277 L305,34.980277 L305,90.300246 L304.99355,90.4199338 C304.933869,90.9702695 304.467381,91.3984173 303.900781,91.3984173 L303.900781,91.3984173 L291.943836,91.3984173 L291.824132,91.3919756 C291.273706,91.3323726 290.845279,90.8664761 290.845279,90.300246 L290.845279,90.300246 L290.845279,85.7933745 L290.470035,86.1069349 C285.180597,90.4540371 278.386212,93 271.081859,93 L271.081859,93 L270.557499,92.9956557 C253.289613,92.7093116 239.621872,78.3051266 240.54616,60.9097645 L240.54616,60.9097645 L240.573586,60.4580256 C241.58968,45.5784685 253.569168,33.4808229 268.484006,32.254376 C269.356029,32.1825547 270.222753,32.1474714 271.08219,32.1474714 L271.08219,32.1474714 Z M48.2242431,5.60071761 L48.749321,5.60384098 C64.4793202,5.79106661 78.1831774,14.37964 85.590401,27.0845638 L85.590401,27.0845638 L85.6546258,27.2051103 C86.2038019,28.3387349 85.3571406,29.6923071 84.065272,29.6923071 L84.065272,29.6923071 L48.2242431,29.6923071 L47.8866151,29.6952266 C36.7680045,29.8876462 27.9635713,39.5656918 29.2288522,50.9785619 L29.2288522,50.9785619 L29.271686,51.333758 C30.3954551,59.9537012 37.4476045,66.8634168 46.123175,67.7883949 L46.123175,67.7883949 L46.4773696,67.8229792 C56.3783422,68.7011836 64.8751882,62.0266067 66.8821516,52.9190618 L66.8821516,52.9190618 L61.5453592,52.9190618 L61.3997329,52.9125273 C60.5843599,52.8390019 59.9453813,52.1541076 59.9453813,51.320127 L59.9453813,51.320127 L59.9453813,42.9047848 L59.9519201,42.7592535 C60.0254934,41.944412 60.7108345,41.30585 61.5453592,41.30585 L61.5453592,41.30585 L86.9562277,41.30585 L86.9574697,41.3183856 L86.9574697,41.3183856 L86.9592085,41.330673 L93.8406701,41.330673 L93.98253,41.3370384 C94.7768139,41.4086603 95.3992493,42.0758239 95.3992493,42.8882361 L95.3992493,42.8882361 L95.3992493,72.9492707 L95.3928797,73.0910352 C95.3212112,73.8847684 94.6536123,74.5065029 93.8406701,74.5065029 L93.8406701,74.5065029 L85.5801341,74.5065029 L85.4382772,74.5001404 C84.6440262,74.4285514 84.0218861,73.7616829 84.0218861,72.9492707 L84.0218861,72.9492707 L84.0218861,65.7356948 L83.8618532,66.1973926 C78.5074362,81.3873146 65.9007965,91.9925155 48.2242431,91.9925155 L48.2242431,91.9925155 L47.5099242,91.9867362 C23.9830682,91.6057904 5.02557448,72.4405175 5,48.8441113 L5,48.8441113 L5,48.7408474 L5.00760184,47.9752531 C5.02183783,47.2079419 5.05605387,46.435697 5.11094858,45.6604734 L5.11094858,45.6604734 L5.16057923,45.0252537 C6.95250055,24.1037472 23.9635504,7.25398846 44.9759335,5.71953724 C46.0675351,5.63977253 47.1498634,5.60071761 48.2242431,5.60071761 L48.2242431,5.60071761 Z M119.142246,30.3552478 L119.652221,30.3593766 C136.448771,30.6315295 149.980984,44.3234217 149.980984,61.1735507 L149.980984,61.1735507 L149.976853,61.683203 C149.704522,78.4691246 136.003695,91.9925155 119.142246,91.9925155 L119.142246,91.9925155 L118.650447,91.9886757 C107.687462,91.8173762 98.1135884,85.9288304 92.7818563,77.1754763 L92.7818563,77.1754763 L93.8410013,77.1754763 L94.0517268,77.1702944 C96.285848,77.0601792 98.070295,75.2090401 98.070295,72.9492707 L98.070295,72.9492707 L98.070295,42.8882361 L98.0631279,42.6408773 C98.0013011,41.5767403 97.5432301,40.6170933 96.8352883,39.9071543 C102.451274,34.0257483 110.365385,30.3552478 119.142246,30.3552478 L119.142246,30.3552478 Z M119.142246,47.5440459 L118.829213,47.5475647 C111.440906,47.7138254 105.503519,53.7507579 105.503519,61.1735507 C105.503519,68.7015518 111.609334,74.8040484 119.142246,74.8040484 L119.142246,74.8040484 L119.455266,74.8005294 C126.843273,74.6342596 132.781304,68.5969962 132.781304,61.1735507 L132.781304,61.1735507 L132.777783,60.8607488 C132.611405,53.477884 126.570208,47.5440459 119.142246,47.5440459 L119.142246,47.5440459 Z M186.930174,32.4135744 L187.57815,32.4202839 C190.169516,32.4739586 192.750962,32.8496707 195.196672,33.54716 L195.196672,33.54716 L195.324935,33.5905006 C196.031285,33.8683967 196.383435,34.6828234 196.070019,35.3933324 L196.070019,35.3933324 L190.656722,47.6476407 L190.594492,47.7711429 C190.277755,48.3269992 189.60239,48.5914458 188.988188,48.3718116 L188.988188,48.3718116 L188.681226,48.2652709 C179.474853,45.1665848 170.517496,50.82467 168.797201,59.4938582 L168.797201,59.4938582 L168.776212,59.6375422 L168.776212,59.6375422 L168.769382,59.7824674 L168.769382,90.0523465 L168.763215,90.1820265 C168.697944,90.8648279 168.122568,91.3984173 167.423095,91.3984173 L167.423095,91.3984173 L153.424033,91.3984173 L153.294321,91.3922582 C152.611315,91.327061 152.077084,90.7522979 152.077084,90.0523465 L152.077084,90.0523465 L152.077084,35.2278454 L152.083251,35.0982205 C152.148524,34.4156951 152.723937,33.8821056 153.424033,33.8821056 L153.424033,33.8821056 L164.090663,33.8821056 L164.230446,33.8893347 C164.737362,33.9419797 165.176607,34.2780883 165.354815,34.76382 L165.354815,34.76382 L166.653741,38.2976283 L166.705118,38.4193821 C167.099484,39.242305 168.204823,39.444859 168.868076,38.7791953 C173.286148,34.3438142 180.108327,32.4135744 186.930174,32.4135744 L186.930174,32.4135744 Z M235.729998,5 L235.852925,5.00620204 C236.459164,5.06771907 236.931885,5.57928705 236.931885,6.20110425 L236.931885,6.20110425 L236.931885,90.1973131 L236.925683,90.3201604 C236.864161,90.9260038 236.352531,91.3984173 235.729998,91.3984173 L235.729998,91.3984173 L221.041399,91.3984173 L220.918526,91.3922189 C220.312524,91.3307371 219.839511,90.8194406 219.839511,90.1973131 L219.839511,90.1973131 L219.839511,6.20110425 L219.845717,6.07831148 C219.907274,5.47270441 220.419176,5 221.041399,5 L221.041399,5 L235.729998,5 Z M214.754754,33.4991688 L214.880996,33.5059619 C215.461503,33.5688145 215.913587,34.0601034 215.913587,34.6569155 L215.913587,34.6569155 L215.913587,90.2406707 L215.906785,90.3668262 C215.843853,90.946916 215.351955,91.3984173 214.754754,91.3984173 L214.754754,91.3984173 L199.845252,91.3984173 L199.719014,91.3916243 C199.138546,91.3287716 198.68675,90.8374828 198.68675,90.2406707 L198.68675,90.2406707 L198.68675,34.6569155 L198.693547,34.53076 C198.756441,33.9506701 199.24805,33.4991688 199.845252,33.4991688 L199.845252,33.4991688 L214.754754,33.4991688 Z M271.694229,46.9602079 C275.566765,46.9602079 279.189552,48.4564887 281.959777,51.2086803 L282.243287,51.49786 C285.083659,54.3347806 286.550256,58.1709743 286.644873,62.1603631 L286.649767,62.5735702 C286.649767,66.5728381 285.277849,70.3222103 282.532218,73.3400504 L282.243287,73.6496115 C279.532575,76.4878119 275.948516,78.0790086 272.093921,78.1819348 L271.694229,78.1872635 C267.688157,78.1872635 263.948693,76.5856809 261.011371,73.6496115 C258.300339,70.6827946 256.712715,66.9678374 256.609886,62.9863764 L256.604559,62.5735702 C256.604559,58.5746223 258.101816,54.6996944 260.734942,51.7948644 L261.011371,51.49786 C263.850782,48.6593396 267.439751,47.0684415 271.29453,46.9655356 L271.694229,46.9602079 Z M207.299672,5.60071761 L207.567409,5.60451846 C212.547873,5.74609756 216.541523,9.82505932 216.541523,14.8362131 L216.541523,14.8362131 L216.53772,15.103742 C216.396048,20.0803423 212.31442,24.0717085 207.299672,24.0717085 L207.299672,24.0717085 L207.031969,24.0679073 C202.052144,23.9263171 198.058814,19.8470416 198.058814,14.8362131 C198.058814,9.73557443 202.196037,5.60071761 207.299672,5.60071761 L207.299672,5.60071761 Z" id="path-1"></path>
    </defs>
    <g id="Logo-/-Gorila-/-Full-Color" stroke="none" stroke-width="1" fill="none" fill-rule="evenodd">
        <mask id="mask-2" fill="white">
            <use xlink:href="#path-1"></use>
        </mask>
        <use id="Logo-Gorila" fill="#10C0C6" xlink:href="#path-1"></use>
    </g>
</svg>